<svg xmlns="http://www.w3.org/2000/svg" xmlns:xlink="http://www.w3.org/1999/xlink" width="500" zoomAndPan="magnify" viewBox="0 0 375 374.999991" height="500" preserveAspectRatio="xMidYMid meet" version="1.0"><defs><g><g id="id1"/></g><clipPath id="id2"><path d="M 187 111.167969 L 254 111.167969 L 254 186 L 187 186 Z M 187 111.167969 " clip-rule="nonzero"/></clipPath><clipPath id="id3"><path d="M 117.261719 152 L 195 152 L 195 186 L 117.261719 186 Z M 117.261719 152 " clip-rule="nonzero"/></clipPath></defs><g clip-path="url(#id2)"><path fill="rgb(0%, 29.019165%, 67.83905%)" d="M 250.957031 111.160156 C 250.957031 111.160156 247.429688 125.511719 216.671875 129.167969 C 195.980469 131.628906 188.835938 143.644531 187.265625 156.179688 C 185.316406 171.679688 199.058594 185.464844 199.058594 185.464844 C 195.976562 180.683594 194.449219 174.96875 194.980469 169.097656 C 195 168.90625 195.019531 168.71875 195.039062 168.53125 C 197.101562 150.773438 211.910156 154.265625 218.515625 141.160156 C 218.515625 141.160156 219.339844 148.578125 215.277344 155.472656 C 213.8125 157.960938 216.363281 162.933594 217.199219 166.328125 C 217.347656 166.9375 215.824219 167.488281 214.777344 167.789062 C 214.226562 167.949219 213.855469 168.46875 213.875 169.046875 L 213.875 169.132812 C 213.882812 169.300781 213.929688 169.460938 214.007812 169.609375 C 214.152344 169.886719 214.175781 170.171875 214.042969 170.386719 C 213.910156 170.601562 213.089844 170.957031 212.960938 171.117188 C 213.191406 171.492188 213.210938 171.921875 212.972656 172.1875 C 212.945312 172.21875 212.914062 172.25 212.878906 172.273438 C 212.460938 172.582031 212.164062 173.027344 212.082031 173.542969 C 211.839844 175.085938 211.722656 176.699219 210.828125 177.152344 C 208.195312 178.480469 201.484375 173.8125 201.480469 173.808594 C 202.269531 174.355469 202.949219 176.113281 203.621094 176.875 C 205.660156 179.183594 208.21875 180.765625 211.175781 181.5625 C 218.054688 183.421875 226.21875 178.796875 231.449219 174.585938 C 250.128906 159.546875 257.398438 134.21875 250.957031 111.160156 " fill-opacity="1" fill-rule="nonzero"/></g><g clip-path="url(#id3)"><path fill="rgb(0%, 29.019165%, 67.83905%)" d="M 194.167969 184.515625 C 183.742188 159.84375 150.898438 132.203125 117.371094 172.738281 C 117.371094 172.738281 128.363281 167.347656 138.597656 174.726562 C 149.679688 182.714844 164.472656 191.40625 183.46875 179.9375 C 166.488281 164.894531 148.183594 164.710938 148.183594 164.710938 C 170.957031 161.175781 194.167969 184.515625 194.167969 184.515625 " fill-opacity="1" fill-rule="nonzero"/></g><g fill="rgb(31.369019%, 64.309692%, 17.649841%)" fill-opacity="1"><g transform="translate(126.419198, 261.242474)"><g><path d="M 5.8125 -2.203125 C 5.8125 -1.472656 5.546875 -0.90625 5.015625 -0.5 C 4.484375 -0.09375 3.765625 0.109375 2.859375 0.109375 C 1.878906 0.109375 1.125 -0.015625 0.59375 -0.265625 L 0.59375 -1.1875 C 0.9375 -1.050781 1.304688 -0.941406 1.703125 -0.859375 C 2.109375 -0.773438 2.507812 -0.734375 2.90625 -0.734375 C 3.539062 -0.734375 4.019531 -0.851562 4.34375 -1.09375 C 4.664062 -1.332031 4.828125 -1.671875 4.828125 -2.109375 C 4.828125 -2.398438 4.769531 -2.632812 4.65625 -2.8125 C 4.539062 -3 4.347656 -3.171875 4.078125 -3.328125 C 3.804688 -3.484375 3.398438 -3.65625 2.859375 -3.84375 C 2.085938 -4.125 1.535156 -4.453125 1.203125 -4.828125 C 0.867188 -5.203125 0.703125 -5.695312 0.703125 -6.3125 C 0.703125 -6.945312 0.941406 -7.453125 1.421875 -7.828125 C 1.898438 -8.203125 2.535156 -8.390625 3.328125 -8.390625 C 4.148438 -8.390625 4.90625 -8.238281 5.59375 -7.9375 L 5.296875 -7.109375 C 4.617188 -7.390625 3.957031 -7.53125 3.3125 -7.53125 C 2.800781 -7.53125 2.398438 -7.421875 2.109375 -7.203125 C 1.828125 -6.984375 1.6875 -6.679688 1.6875 -6.296875 C 1.6875 -6.003906 1.738281 -5.765625 1.84375 -5.578125 C 1.945312 -5.398438 2.125 -5.234375 2.375 -5.078125 C 2.625 -4.929688 3.007812 -4.765625 3.53125 -4.578125 C 4.394531 -4.265625 4.988281 -3.929688 5.3125 -3.578125 C 5.644531 -3.222656 5.8125 -2.765625 5.8125 -2.203125 Z M 5.8125 -2.203125 "/></g></g></g><g fill="rgb(31.369019%, 64.309692%, 17.649841%)" fill-opacity="1"><g transform="translate(134.338092, 261.242474)"><g><path d="M 7.421875 0 L 6.453125 0 L 6.453125 -3.890625 L 2.09375 -3.890625 L 2.09375 0 L 1.140625 0 L 1.140625 -8.28125 L 2.09375 -8.28125 L 2.09375 -4.75 L 6.453125 -4.75 L 6.453125 -8.28125 L 7.421875 -8.28125 Z M 7.421875 0 "/></g></g></g><g fill="rgb(31.369019%, 64.309692%, 17.649841%)" fill-opacity="1"><g transform="translate(144.444846, 261.242474)"><g><path d="M 8.328125 -4.15625 C 8.328125 -2.820312 7.988281 -1.773438 7.3125 -1.015625 C 6.644531 -0.265625 5.710938 0.109375 4.515625 0.109375 C 3.296875 0.109375 2.351562 -0.257812 1.6875 -1 C 1.03125 -1.75 0.703125 -2.800781 0.703125 -4.15625 C 0.703125 -5.507812 1.035156 -6.554688 1.703125 -7.296875 C 2.367188 -8.035156 3.3125 -8.40625 4.53125 -8.40625 C 5.71875 -8.40625 6.644531 -8.023438 7.3125 -7.265625 C 7.988281 -6.515625 8.328125 -5.476562 8.328125 -4.15625 Z M 1.734375 -4.15625 C 1.734375 -3.03125 1.96875 -2.175781 2.4375 -1.59375 C 2.914062 -1.019531 3.609375 -0.734375 4.515625 -0.734375 C 5.441406 -0.734375 6.132812 -1.019531 6.59375 -1.59375 C 7.0625 -2.175781 7.296875 -3.03125 7.296875 -4.15625 C 7.296875 -5.257812 7.0625 -6.097656 6.59375 -6.671875 C 6.132812 -7.253906 5.445312 -7.546875 4.53125 -7.546875 C 3.613281 -7.546875 2.914062 -7.253906 2.4375 -6.671875 C 1.96875 -6.097656 1.734375 -5.257812 1.734375 -4.15625 Z M 1.734375 -4.15625 "/></g></g></g><g fill="rgb(31.369019%, 64.309692%, 17.649841%)" fill-opacity="1"><g transform="translate(155.026484, 261.242474)"><g><path d="M 7.390625 -8.28125 L 7.390625 -2.921875 C 7.390625 -1.972656 7.101562 -1.226562 6.53125 -0.6875 C 5.957031 -0.15625 5.175781 0.109375 4.1875 0.109375 C 3.1875 0.109375 2.410156 -0.160156 1.859375 -0.703125 C 1.316406 -1.242188 1.046875 -1.988281 1.046875 -2.9375 L 1.046875 -8.28125 L 2.015625 -8.28125 L 2.015625 -2.875 C 2.015625 -2.1875 2.203125 -1.65625 2.578125 -1.28125 C 2.953125 -0.914062 3.507812 -0.734375 4.25 -0.734375 C 4.945312 -0.734375 5.484375 -0.914062 5.859375 -1.28125 C 6.234375 -1.65625 6.421875 -2.191406 6.421875 -2.890625 L 6.421875 -8.28125 Z M 7.390625 -8.28125 "/></g></g></g><g fill="rgb(31.369019%, 64.309692%, 17.649841%)" fill-opacity="1"><g transform="translate(165.020168, 261.242474)"><g><path d="M 3.6875 0 L 2.71875 0 L 2.71875 -7.421875 L 0.109375 -7.421875 L 0.109375 -8.28125 L 6.3125 -8.28125 L 6.3125 -7.421875 L 3.6875 -7.421875 Z M 3.6875 0 "/></g></g></g><g fill="rgb(31.369019%, 64.309692%, 17.649841%)" fill-opacity="1"><g transform="translate(172.989942, 261.242474)"><g/></g></g><g fill="rgb(31.369019%, 64.309692%, 17.649841%)" fill-opacity="1"><g transform="translate(177.562034, 261.242474)"><g><path d="M 2.09375 0 L 1.140625 0 L 1.140625 -8.28125 L 5.75 -8.28125 L 5.75 -7.421875 L 2.09375 -7.421875 L 2.09375 -4.390625 L 5.53125 -4.390625 L 5.53125 -3.53125 L 2.09375 -3.53125 Z M 2.09375 0 "/></g></g></g><g fill="rgb(31.369019%, 64.309692%, 17.649841%)" fill-opacity="1"><g transform="translate(185.102151, 261.242474)"><g><path d="M 8.328125 -4.15625 C 8.328125 -2.820312 7.988281 -1.773438 7.3125 -1.015625 C 6.644531 -0.265625 5.710938 0.109375 4.515625 0.109375 C 3.296875 0.109375 2.351562 -0.257812 1.6875 -1 C 1.03125 -1.75 0.703125 -2.800781 0.703125 -4.15625 C 0.703125 -5.507812 1.035156 -6.554688 1.703125 -7.296875 C 2.367188 -8.035156 3.3125 -8.40625 4.53125 -8.40625 C 5.71875 -8.40625 6.644531 -8.023438 7.3125 -7.265625 C 7.988281 -6.515625 8.328125 -5.476562 8.328125 -4.15625 Z M 1.734375 -4.15625 C 1.734375 -3.03125 1.96875 -2.175781 2.4375 -1.59375 C 2.914062 -1.019531 3.609375 -0.734375 4.515625 -0.734375 C 5.441406 -0.734375 6.132812 -1.019531 6.59375 -1.59375 C 7.0625 -2.175781 7.296875 -3.03125 7.296875 -4.15625 C 7.296875 -5.257812 7.0625 -6.097656 6.59375 -6.671875 C 6.132812 -7.253906 5.445312 -7.546875 4.53125 -7.546875 C 3.613281 -7.546875 2.914062 -7.253906 2.4375 -6.671875 C 1.96875 -6.097656 1.734375 -5.257812 1.734375 -4.15625 Z M 1.734375 -4.15625 "/></g></g></g><g fill="rgb(31.369019%, 64.309692%, 17.649841%)" fill-opacity="1"><g transform="translate(195.683786, 261.242474)"><g><path d="M 2.09375 -3.4375 L 2.09375 0 L 1.140625 0 L 1.140625 -8.28125 L 3.40625 -8.28125 C 4.425781 -8.28125 5.175781 -8.082031 5.65625 -7.6875 C 6.144531 -7.300781 6.390625 -6.71875 6.390625 -5.9375 C 6.390625 -4.84375 5.832031 -4.101562 4.71875 -3.71875 L 6.96875 0 L 5.828125 0 L 3.828125 -3.4375 Z M 2.09375 -4.265625 L 3.421875 -4.265625 C 4.097656 -4.265625 4.59375 -4.398438 4.90625 -4.671875 C 5.226562 -4.941406 5.390625 -5.347656 5.390625 -5.890625 C 5.390625 -6.429688 5.226562 -6.820312 4.90625 -7.0625 C 4.582031 -7.3125 4.0625 -7.4375 3.34375 -7.4375 L 2.09375 -7.4375 Z M 2.09375 -4.265625 "/></g></g></g><g fill="rgb(31.369019%, 64.309692%, 17.649841%)" fill-opacity="1"><g transform="translate(204.40546, 261.242474)"><g/></g></g><g fill="rgb(31.369019%, 64.309692%, 17.649841%)" fill-opacity="1"><g transform="translate(208.977551, 261.242474)"><g><path d="M 4.78125 -4.34375 L 7.59375 -4.34375 L 7.59375 -0.3125 C 7.15625 -0.175781 6.707031 -0.0703125 6.25 0 C 5.800781 0.0703125 5.28125 0.109375 4.6875 0.109375 C 3.425781 0.109375 2.445312 -0.257812 1.75 -1 C 1.050781 -1.75 0.703125 -2.796875 0.703125 -4.140625 C 0.703125 -4.992188 0.875 -5.742188 1.21875 -6.390625 C 1.570312 -7.046875 2.070312 -7.539062 2.71875 -7.875 C 3.363281 -8.21875 4.125 -8.390625 5 -8.390625 C 5.882812 -8.390625 6.707031 -8.226562 7.46875 -7.90625 L 7.09375 -7.0625 C 6.34375 -7.375 5.625 -7.53125 4.9375 -7.53125 C 3.925781 -7.53125 3.140625 -7.226562 2.578125 -6.625 C 2.015625 -6.03125 1.734375 -5.203125 1.734375 -4.140625 C 1.734375 -3.023438 2.003906 -2.175781 2.546875 -1.59375 C 3.085938 -1.019531 3.890625 -0.734375 4.953125 -0.734375 C 5.523438 -0.734375 6.082031 -0.796875 6.625 -0.921875 L 6.625 -3.46875 L 4.78125 -3.46875 Z M 4.78125 -4.34375 "/></g></g></g><g fill="rgb(31.369019%, 64.309692%, 17.649841%)" fill-opacity="1"><g transform="translate(218.971236, 261.242474)"><g><path d="M 8.328125 -4.15625 C 8.328125 -2.820312 7.988281 -1.773438 7.3125 -1.015625 C 6.644531 -0.265625 5.710938 0.109375 4.515625 0.109375 C 3.296875 0.109375 2.351562 -0.257812 1.6875 -1 C 1.03125 -1.75 0.703125 -2.800781 0.703125 -4.15625 C 0.703125 -5.507812 1.035156 -6.554688 1.703125 -7.296875 C 2.367188 -8.035156 3.3125 -8.40625 4.53125 -8.40625 C 5.71875 -8.40625 6.644531 -8.023438 7.3125 -7.265625 C 7.988281 -6.515625 8.328125 -5.476562 8.328125 -4.15625 Z M 1.734375 -4.15625 C 1.734375 -3.03125 1.96875 -2.175781 2.4375 -1.59375 C 2.914062 -1.019531 3.609375 -0.734375 4.515625 -0.734375 C 5.441406 -0.734375 6.132812 -1.019531 6.59375 -1.59375 C 7.0625 -2.175781 7.296875 -3.03125 7.296875 -4.15625 C 7.296875 -5.257812 7.0625 -6.097656 6.59375 -6.671875 C 6.132812 -7.253906 5.445312 -7.546875 4.53125 -7.546875 C 3.613281 -7.546875 2.914062 -7.253906 2.4375 -6.671875 C 1.96875 -6.097656 1.734375 -5.257812 1.734375 -4.15625 Z M 1.734375 -4.15625 "/></g></g></g><g fill="rgb(31.369019%, 64.309692%, 17.649841%)" fill-opacity="1"><g transform="translate(229.552877, 261.242474)"><g><path d="M 8.328125 -4.15625 C 8.328125 -2.820312 7.988281 -1.773438 7.3125 -1.015625 C 6.644531 -0.265625 5.710938 0.109375 4.515625 0.109375 C 3.296875 0.109375 2.351562 -0.257812 1.6875 -1 C 1.03125 -1.75 0.703125 -2.800781 0.703125 -4.15625 C 0.703125 -5.507812 1.035156 -6.554688 1.703125 -7.296875 C 2.367188 -8.035156 3.3125 -8.40625 4.53125 -8.40625 C 5.71875 -8.40625 6.644531 -8.023438 7.3125 -7.265625 C 7.988281 -6.515625 8.328125 -5.476562 8.328125 -4.15625 Z M 1.734375 -4.15625 C 1.734375 -3.03125 1.96875 -2.175781 2.4375 -1.59375 C 2.914062 -1.019531 3.609375 -0.734375 4.515625 -0.734375 C 5.441406 -0.734375 6.132812 -1.019531 6.59375 -1.59375 C 7.0625 -2.175781 7.296875 -3.03125 7.296875 -4.15625 C 7.296875 -5.257812 7.0625 -6.097656 6.59375 -6.671875 C 6.132812 -7.253906 5.445312 -7.546875 4.53125 -7.546875 C 3.613281 -7.546875 2.914062 -7.253906 2.4375 -6.671875 C 1.96875 -6.097656 1.734375 -5.257812 1.734375 -4.15625 Z M 1.734375 -4.15625 "/></g></g></g><g fill="rgb(31.369019%, 64.309692%, 17.649841%)" fill-opacity="1"><g transform="translate(240.134518, 261.242474)"><g><path d="M 7.75 -4.21875 C 7.75 -2.851562 7.375 -1.804688 6.625 -1.078125 C 5.882812 -0.359375 4.820312 0 3.4375 0 L 1.140625 0 L 1.140625 -8.28125 L 3.671875 -8.28125 C 4.960938 -8.28125 5.960938 -7.921875 6.671875 -7.203125 C 7.390625 -6.492188 7.75 -5.5 7.75 -4.21875 Z M 6.71875 -4.1875 C 6.71875 -5.257812 6.445312 -6.066406 5.90625 -6.609375 C 5.363281 -7.160156 4.5625 -7.4375 3.5 -7.4375 L 2.09375 -7.4375 L 2.09375 -0.828125 L 3.265625 -0.828125 C 4.421875 -0.828125 5.285156 -1.109375 5.859375 -1.671875 C 6.429688 -2.242188 6.71875 -3.082031 6.71875 -4.1875 Z M 6.71875 -4.1875 "/></g></g></g><g fill="rgb(22.349548%, 20.779419%, 21.179199%)" fill-opacity="1"><g transform="translate(116.242346, 236.008475)"><g><path d="M 14.058594 -4.601562 C 10.847656 -4.601562 8.070312 -6.207031 7.898438 -9.71875 L 1.300781 -9.71875 C 1.34375 -2.515625 7.289062 0.695312 13.800781 0.695312 C 19.832031 0.695312 26.035156 -1.867188 26.035156 -8.808594 C 26.035156 -20.046875 8.984375 -16.273438 8.984375 -21.523438 C 8.984375 -23.738281 11.542969 -24.605469 13.367188 -24.605469 C 16.621094 -24.605469 18.398438 -23.605469 18.746094 -20.527344 L 25.039062 -20.527344 C 24.820312 -27.253906 19.355469 -29.941406 13.277344 -29.941406 C 7.898438 -29.941406 2.257812 -27.078125 2.257812 -21.003906 C 2.257812 -10.109375 19.3125 -13.800781 19.3125 -8.070312 C 19.3125 -5.425781 16.097656 -4.601562 14.058594 -4.601562 Z M 14.058594 -4.601562 "/></g></g></g><g fill="rgb(22.349548%, 20.779419%, 21.179199%)" fill-opacity="1"><g transform="translate(146.488718, 236.008475)"><g><path d="M 22.175781 -10.847656 C 22.175781 -16.054688 20.09375 -19.570312 14.972656 -19.570312 C 12.453125 -19.570312 10.414062 -18.441406 9.113281 -16.792969 L 9.113281 -32.546875 L 2.605469 -32.546875 L 2.605469 0 L 9.113281 0 L 9.113281 -9.546875 C 9.113281 -12.152344 10.71875 -14.320312 12.757812 -14.320312 C 14.796875 -14.320312 15.664062 -13.105469 15.664062 -10.847656 L 15.664062 0 L 22.175781 0 Z M 22.175781 -10.847656 "/></g></g></g><g fill="rgb(22.349548%, 20.779419%, 21.179199%)" fill-opacity="1"><g transform="translate(173.523901, 236.008475)"><g><path d="M 12.453125 -4.511719 C 8.9375 -4.511719 7.984375 -7.074219 7.984375 -9.503906 C 7.984375 -11.890625 9.027344 -14.449219 12.453125 -14.449219 C 15.839844 -14.449219 16.878906 -11.890625 16.878906 -9.503906 C 16.878906 -7.074219 15.925781 -4.511719 12.453125 -4.511719 Z M 12.453125 -19.527344 C 6.464844 -19.527344 1.519531 -15.535156 1.519531 -9.546875 C 1.519531 -3.429688 6.335938 0.390625 12.453125 0.390625 C 18.53125 0.390625 23.347656 -3.429688 23.347656 -9.546875 C 23.347656 -15.535156 18.398438 -19.527344 12.453125 -19.527344 Z M 12.453125 -19.527344 "/></g></g></g><g fill="rgb(22.349548%, 20.779419%, 21.179199%)" fill-opacity="1"><g transform="translate(201.296782, 236.008475)"><g><path d="M 2.167969 -8.246094 C 2.167969 -3.082031 4.253906 0.433594 9.375 0.433594 C 11.890625 0.433594 13.929688 -0.695312 15.230469 -2.34375 L 15.230469 0 L 21.742188 0 L 21.742188 -19.136719 L 15.230469 -19.136719 L 15.230469 -9.546875 C 15.230469 -6.988281 13.625 -4.773438 11.585938 -4.773438 C 9.546875 -4.773438 8.679688 -6.03125 8.679688 -8.246094 L 8.679688 -19.136719 L 2.167969 -19.136719 Z M 2.167969 -8.246094 "/></g></g></g><g fill="rgb(22.349548%, 20.779419%, 21.179199%)" fill-opacity="1"><g transform="translate(228.548934, 236.008475)"><g><path d="M 10.804688 -14.101562 L 14.277344 -14.101562 L 14.277344 -19.136719 L 10.804688 -19.136719 L 10.804688 -26.425781 L 4.339844 -26.425781 L 4.339844 -19.136719 L 0.867188 -19.136719 L 0.867188 -14.101562 L 4.339844 -14.101562 L 4.339844 0 L 10.804688 0 Z M 10.804688 -14.101562 "/></g></g></g><g fill="rgb(22.349548%, 20.779419%, 21.179199%)" fill-opacity="1"><g transform="translate(246.601438, 236.008475)"><g><path d="M 2.257812 -3.339844 C 2.257812 -1.257812 3.949219 0.433594 6.074219 0.433594 C 8.160156 0.433594 9.894531 -1.257812 9.894531 -3.339844 C 9.894531 -5.46875 8.160156 -7.160156 6.074219 -7.160156 C 3.949219 -7.160156 2.257812 -5.46875 2.257812 -3.339844 Z M 2.257812 -3.339844 "/></g></g></g></svg>