<svg xmlns="http://www.w3.org/2000/svg" xmlns:xlink="http://www.w3.org/1999/xlink" width="340" height="47" viewBox="0 0 340 47">
  <defs>
    <polygon id="shout-anz-a" points="0 .333 31.787 .333 31.787 38.003 0 38.003"/>
    <path id="shout-anz-c" d="M62.2600291,0.184071255 C61.4026883,0.184071255 60.8268437,0.652126316 60.8268437,1.61684211 L60.8268437,6.43005668 C60.8268437,7.39643077 61.4026883,7.86365668 62.2600291,7.86365668 L71.8640713,7.86738785 C71.8640713,7.86738785 69.886549,10.4493603 67.722468,13.275932 L78.9184777,13.275932 C80.9129976,10.6682559 82.7338105,8.29066883 83.0003822,7.93910931 C84.2635919,6.29200324 84.5537943,4.81694575 84.5537943,3.51352227 L84.5537943,1.64752065 C84.5537943,0.702704453 83.9717312,0.181583806 83.0886866,0.181583806 L62.2600291,0.184071255 Z M34.2724923,0.184071255 C33.4134931,0.184071255 32.8384777,0.652126316 32.8384777,1.61684211 L32.8384777,13.275932 L40.0466915,13.275932 L41.1478024,15.2323109 L32.8384777,15.2323109 L32.8384777,26.8872551 C32.8384777,27.8532146 33.415566,28.3208551 34.2724923,28.3208551 L40.0819304,28.3208551 C40.9417587,28.3208551 41.5151158,27.8532146 41.5151158,26.8872551 L41.5151158,15.9105555 L47.0637862,25.7902899 C48.1495579,27.5936907 50.0076826,28.2727644 52.1572534,28.3208551 L56.4083045,28.3208551 C57.2660599,28.3208551 57.842319,27.8532146 57.842319,26.8860113 L57.842319,15.2323109 L50.6842688,15.2323109 L49.5835725,13.275932 L57.842319,13.275932 L57.8414899,1.61684211 C57.8414899,0.652126316 57.2652308,0.184071255 56.4083045,0.184071255 L50.5972081,0.184071255 C49.7406964,0.184071255 49.1631935,0.652126316 49.1631935,1.61684211 L49.1611206,12.5255514 L43.6534931,2.71588016 C42.5673069,0.911235628 40.7091822,0.229259919 38.5596113,0.183242105 L34.2724923,0.184071255 Z M21.5525053,0.186558704 C18.5829053,0.186558704 15.9710834,1.74453117 14.5055611,4.09807287 C14.5055611,4.09807287 11.7880227,8.42208907 8.73758057,13.275932 L28.074183,13.275932 L25.9855547,1.54553522 C25.8197247,0.626837247 25.2090559,0.186558704 24.3989765,0.186558704 L21.5525053,0.186558704 Z M66.222536,15.2323109 C64.1811692,17.8930526 62.3458462,20.2863935 62.2359838,20.4298364 C60.7414413,22.497736 60.5996567,24.5888518 60.5996567,26.0353036 L60.5996567,26.8520162 C60.5996567,27.7984907 61.1829636,28.3175385 62.0672518,28.3175385 L83.3714267,28.3175385 C84.228353,28.3175385 84.8041976,27.8515563 84.8041976,26.8847676 L84.8041976,22.0719676 C84.8041976,21.108081 84.228353,20.6387822 83.3714267,20.6387822 L73.2864777,20.6371239 C73.2864777,20.6371239 75.2557085,18.0642721 77.4231061,15.2323109 L66.222536,15.2323109 Z M18.874766,15.2323109 C19.1106591,16.5548049 20.8788211,26.4067628 20.9820502,26.9834364 C21.1408324,27.8785036 21.6959482,28.3220988 22.5209522,28.3220988 L29.0923789,28.3220988 C29.6951709,28.3220988 29.9986397,28.1355401 30.2764049,27.7914429 C30.4691822,27.5559644 30.5533409,27.1927968 30.4617198,26.6646283 L28.4236696,15.2323109 L18.874766,15.2323109 Z M7.50670769,15.2323109 C3.99774575,20.8129036 0.463909312,26.4237603 0.383481781,26.557668 C0.118568421,26.9971174 0.119397571,27.4589538 0.274863158,27.7636664 C0.456861538,28.1181279 0.865632389,28.3175385 1.31544615,28.3175385 L8.13478866,28.3208551 C9.00042105,28.3208551 9.76240972,27.866481 10.1956405,27.1782866 L17.7185166,15.2323109 L7.50670769,15.2323109 Z"/>
    <linearGradient id="shout-anz-d" x1="49.971%" x2="49.971%" y1="49.646%" y2="1.253%">
      <stop offset="0%" stop-color="#007CBA"/>
      <stop offset="100%" stop-color="#0097C8"/>
    </linearGradient>
    <linearGradient id="shout-anz-h" x1="47.095%" x2="47.095%" y1="-6.498%" y2="100%">
      <stop offset="0%" stop-color="#0097C8"/>
      <stop offset="100%" stop-color="#007DBA"/>
    </linearGradient>
    <path id="shout-anz-g" d="M22.2778118,0 C15.6102037,0 10.2082928,5.40439838 10.2082928,12.0711773 C10.2082928,14.9193069 11.1904207,17.5361036 12.8400142,19.5969555 C14.9858539,22.168149 17.646181,23.0963822 18.7178572,23.0777263 C20.3827899,23.0462186 20.0867835,21.7038251 19.9528758,21.1437344 C19.8322345,20.651634 19.5283511,19.9729749 19.123726,19.3710121 C18.5051802,18.4531433 18.0814847,17.4374348 18.0814847,16.1273781 C18.0839721,13.7929069 20.3060936,12.102685 22.2778118,12.102685 L22.2794701,12.102685 C24.2511883,12.102685 26.4757972,13.7929069 26.4786993,16.1273781 C26.4786993,17.4374348 26.0541746,18.4531433 25.4360434,19.3710121 C25.0305891,19.9729749 24.7250474,20.651634 24.606479,21.1437344 C24.4734005,21.7038251 24.1753211,23.0462186 25.8398393,23.0777263 C26.9135883,23.0963822 29.5701843,22.168149 31.7164385,19.5969555 C33.3660321,17.5361036 34.3518912,14.9193069 34.3518912,12.0711773 C34.3518912,5.40439838 28.9483219,0 22.2794701,0 L22.2778118,0 Z M34.4725325,23.7650915 C32.7338053,24.4495547 30.5776013,26.0021377 29.0930086,28.0364567 C27.5313049,30.1822964 26.7121049,33.42137 27.4927495,36.7951806 C27.7149616,37.7545069 27.952513,38.2835045 28.3003414,38.9464097 C28.7758588,39.8564016 29.9897341,41.1146364 31.0651414,41.3426526 C31.9154345,41.5209198 32.5779252,41.0308923 32.8946604,40.666481 C35.0566685,38.1856648 43.2341584,28.5791352 44.1209341,27.3482623 C44.9923705,26.134387 44.4231592,24.9681879 43.6209567,24.301966 C43.1280272,23.8960972 42.2574199,23.2991093 40.4801373,23.0321231 C39.9337276,22.9500372 39.4001697,22.9139692 38.8860968,22.9139692 C37.0773065,22.9139692 35.5081406,23.3563206 34.4725325,23.7650915 Z M4.07755918,23.0321231 C2.30276404,23.2991093 1.42925472,23.8960972 0.937568894,24.301966 C0.13578104,24.9681879 -0.434674021,26.134387 0.438006141,27.3482623 C1.32478185,28.5791352 9.50351545,38.1856648 11.6638653,40.666481 C11.9789422,41.0308923 12.6430912,41.5209198 13.4954572,41.3426526 C14.5692061,41.1146364 15.7814231,39.8564016 16.2602572,38.9464097 C16.6068418,38.2835045 16.843564,37.7545069 17.0666053,36.7951806 C17.8468353,33.42137 17.0280499,30.1822964 15.4655171,28.0364567 C13.9796806,26.0021377 11.8263786,24.4495547 10.0847495,23.7650915 C9.04789764,23.3563206 7.48038995,22.9139692 5.67201424,22.9139692 C5.15794136,22.9139692 4.62438347,22.9500372 4.07755918,23.0321231 Z"/>
    <filter id="shout-anz-f" width="102.2%" height="104.8%" x="-1.1%" y="-1.2%" filterUnits="objectBoundingBox">
      <feOffset dy="1" in="SourceAlpha" result="shadowOffsetOuter1"/>
      <feColorMatrix in="shadowOffsetOuter1" values="0 0 0 0 0   0 0 0 0 0.160784314   0 0 0 0 0.250980392  0 0 0 0.0893625453 0"/>
    </filter>
  </defs>
  <g fill="none" fill-rule="evenodd">
    <g transform="translate(0 6.08)">
      <mask id="shout-anz-b" fill="#fff">
        <use xlink:href="#shout-anz-a"/>
      </mask>
      <path fill="#000" d="M0.00229052632,31.9600505 L5.60970105,25.2622821 C5.61306947,25.25824 5.61879579,25.2579032 5.62283789,25.2609347 C9.26241684,28.11904 13.2142484,29.6257347 17.4264589,29.6257347 C20.1838484,29.6257347 21.6406905,28.6893137 21.6406905,27.1287242 L21.6406905,27.0243032 C21.6406905,25.4637137 20.4442274,24.6829137 15.4491958,23.4864505 C7.69677474,21.7173558 1.71344842,19.5322611 1.71344842,12.0920926 L1.71344842,11.9880084 C1.71344842,5.22421895 7.07260632,0.332934737 15.8136589,0.332934737 C22.0011116,0.332934737 26.8378274,1.99592421 30.7906695,5.16628211 C30.7947116,5.16965053 30.7953853,5.17537684 30.7926905,5.17941895 L25.7565642,12.2921768 C25.7535326,12.2965558 25.7478063,12.2975663 25.7437642,12.2945347 C22.4157642,9.90464 18.7765221,8.71019789 15.55328,8.71019789 C13.1081432,8.71019789 11.9110063,9.69849263 11.9110063,11.0512505 L11.9110063,11.1553347 C11.9110063,12.8203453 13.1603537,13.5489347 18.2587958,14.6935242 C26.5831747,16.5144926 31.7867116,19.2200084 31.7867116,26.0360084 L31.7867116,26.1400926 C31.7867116,33.5802611 25.9067958,38.0026611 17.0623326,38.0026611 C10.6134905,38.0026611 4.52944842,35.9755453 0.00330105263,31.9735242 C-0.000741052632,31.9698189 -0.00107789474,31.9640926 0.00229052632,31.9600505" mask="url(#shout-anz-b)"/>
      <path fill="#000" d="M35.0728758.328488421L44.9396547.328488421C44.9447074.328488421 44.9487495.332530526 44.9487495.33792L44.9487495 13.0537095C44.9487495 13.0628042 44.9598653 13.0665095 44.9652547 13.0594358 46.7852126 10.7264674 49.3836126 8.60570947 53.3782232 8.60570947 59.3615495 8.60570947 62.9512758 12.5602358 62.9512758 18.9598989L62.9512758 37.3689937C62.9512758 37.3740463 62.9468968 37.3784253 62.9418442 37.3784253L53.1272758 37.3784253C53.1218863 37.3784253 53.1178442 37.3740463 53.1178442 37.3689937L53.1178442 22.1336253C53.1178442 19.0117726 51.5043705 17.3467621 49.1114442 17.3467621 46.7181811 17.3467621 44.9487495 19.0117726 44.9487495 22.1336253L44.9487495 37.3689937C44.9487495 37.3740463 44.9447074 37.3784253 44.9396547 37.3784253L35.0728758 37.3784253C35.0674863 37.3784253 35.0634442 37.3740463 35.0634442 37.3689937L35.0634442.33792C35.0634442.332530526 35.0674863.328488421 35.0728758.328488421M87.4029474 23.4344084L87.4029474 23.2491453C87.4029474 19.5792505 84.2625684 16.5473347 80.6176 16.9737768 77.4620632 17.3429558 75.4881684 20.0380295 75.4881684 23.22624L75.4881684 23.3303242C75.4881684 26.7644295 77.9861895 29.6781137 81.4718316 29.6781137 85.0618947 29.6781137 87.4029474 26.81664 87.4029474 23.4344084M65.9151158 23.4344084L65.9151158 23.3303242C65.9151158 15.3175242 72.4707368 8.60594526 81.4718316 8.60594526 90.4732632 8.60594526 96.9766737 15.2137768 96.9766737 23.22624L96.9766737 23.3303242C96.9766737 31.3431242 90.4210526 38.0547032 81.3677474 38.0547032 72.4188632 38.0547032 65.9151158 31.4472084 65.9151158 23.4344084M99.8893137 27.5967326L99.8893137 9.23984842C99.8893137 9.23479579 99.8936926 9.23041684 99.8987453 9.23041684L109.765524 9.23041684C109.770577 9.23041684 109.774956 9.23479579 109.774956 9.23984842L109.774956 24.47488C109.774956 27.5448589 111.388093 29.2098695 113.781019 29.2098695 116.174956 29.2098695 117.943714 27.5448589 117.943714 24.47488L117.943714 9.23984842C117.943714 9.23479579 117.947756 9.23041684 117.953145 9.23041684L127.767714 9.23041684C127.772766 9.23041684 127.777145 9.23479579 127.777145 9.23984842L127.777145 37.3688589C127.777145 37.3742484 127.772766 37.3782905 127.767714 37.3782905L117.953145 37.3782905C117.947756 37.3782905 117.943714 37.3742484 117.943714 37.3688589L117.943714 33.5029221C117.943714 33.4941642 117.932935 33.4901221 117.927208 33.4971958 116.107251 35.8305011 113.509524 38.0027958 109.515251 38.0027958 103.531587 38.0027958 99.8893137 33.9963958 99.8893137 27.5967326M133.810695 28.6373726L133.810695 17.1483621C133.810695 17.1429726 133.806316 17.1389305 133.801263 17.1389305L130.490442 17.1389305C130.485053 17.1389305 130.480674 17.1348884 130.480674 17.1294989L130.480674 9.23998316C130.480674 9.23459368 130.485053 9.23055158 130.490442 9.23055158L133.801263 9.23055158C133.806316 9.23055158 133.810695 9.22617263 133.810695 9.22112L133.810695 2.11173053C133.810695 2.10634105 133.815074 2.10229895 133.820126 2.10229895L143.635368 2.10229895C143.640758 2.10229895 143.6448 2.10634105 143.6448 2.11173053L143.6448 9.22112C143.6448 9.22617263 143.649179 9.23055158 143.654232 9.23055158L150.190989 9.23055158C150.196379 9.23055158 150.200421 9.23459368 150.200421 9.23998316L150.200421 17.1294989C150.200421 17.1348884 150.196379 17.1389305 150.190989 17.1389305L143.654232 17.1389305C143.649179 17.1389305 143.6448 17.1429726 143.6448 17.1483621L143.6448 26.71232C143.6448 28.6892463 144.529011 29.52192 146.350316 29.52192 147.646484 29.52192 148.890442 29.1604884 150.0832 28.5915621 150.089263 28.5885305 150.096337 28.5929095 150.096337 28.5999832L150.096337 36.2799832C150.096337 36.2833516 150.094316 36.28672 150.091284 36.2884042 148.3232 37.2756884 145.983158 37.9503832 143.228126 37.9503832 137.297011 37.9503832 133.810695 35.3492884 133.810695 28.6373726M165.358383 32.9360505C165.358383 35.7267874 163.096152 37.9886821 160.305752 37.9886821 157.515352 37.9886821 155.25312 35.7267874 155.25312 32.9360505 155.25312 30.1456505 157.515352 27.8834189 160.305752 27.8834189 163.096152 27.8834189 165.358383 30.1456505 165.358383 32.9360505"/>
    </g>
    <polygon fill="#CCC" points="185.4 44.083 186.074 44.083 186.074 6.357 185.4 6.357"/>
    <g transform="translate(207)">
      <g transform="translate(.181 15.853)">
        <mask id="shout-anz-e" fill="#fff">
          <use xlink:href="#shout-anz-c"/>
        </mask>
        <path fill="url(#shout-anz-d)" d="M62.2600291,0.184071255 C61.4026883,0.184071255 60.8268437,0.652126316 60.8268437,1.61684211 L60.8268437,6.43005668 C60.8268437,7.39643077 61.4026883,7.86365668 62.2600291,7.86365668 L71.8640713,7.86738785 C71.8640713,7.86738785 69.886549,10.4493603 67.722468,13.275932 L78.9184777,13.275932 C80.9129976,10.6682559 82.7338105,8.29066883 83.0003822,7.93910931 C84.2635919,6.29200324 84.5537943,4.81694575 84.5537943,3.51352227 L84.5537943,1.64752065 C84.5537943,0.702704453 83.9717312,0.181583806 83.0886866,0.181583806 L62.2600291,0.184071255 Z M34.2724923,0.184071255 C33.4134931,0.184071255 32.8384777,0.652126316 32.8384777,1.61684211 L32.8384777,13.275932 L40.0466915,13.275932 L41.1478024,15.2323109 L32.8384777,15.2323109 L32.8384777,26.8872551 C32.8384777,27.8532146 33.415566,28.3208551 34.2724923,28.3208551 L40.0819304,28.3208551 C40.9417587,28.3208551 41.5151158,27.8532146 41.5151158,26.8872551 L41.5151158,15.9105555 L47.0637862,25.7902899 C48.1495579,27.5936907 50.0076826,28.2727644 52.1572534,28.3208551 L56.4083045,28.3208551 C57.2660599,28.3208551 57.842319,27.8532146 57.842319,26.8860113 L57.842319,15.2323109 L50.6842688,15.2323109 L49.5835725,13.275932 L57.842319,13.275932 L57.8414899,1.61684211 C57.8414899,0.652126316 57.2652308,0.184071255 56.4083045,0.184071255 L50.5972081,0.184071255 C49.7406964,0.184071255 49.1631935,0.652126316 49.1631935,1.61684211 L49.1611206,12.5255514 L43.6534931,2.71588016 C42.5673069,0.911235628 40.7091822,0.229259919 38.5596113,0.183242105 L34.2724923,0.184071255 Z M21.5525053,0.186558704 C18.5829053,0.186558704 15.9710834,1.74453117 14.5055611,4.09807287 C14.5055611,4.09807287 11.7880227,8.42208907 8.73758057,13.275932 L28.074183,13.275932 L25.9855547,1.54553522 C25.8197247,0.626837247 25.2090559,0.186558704 24.3989765,0.186558704 L21.5525053,0.186558704 Z M66.222536,15.2323109 C64.1811692,17.8930526 62.3458462,20.2863935 62.2359838,20.4298364 C60.7414413,22.497736 60.5996567,24.5888518 60.5996567,26.0353036 L60.5996567,26.8520162 C60.5996567,27.7984907 61.1829636,28.3175385 62.0672518,28.3175385 L83.3714267,28.3175385 C84.228353,28.3175385 84.8041976,27.8515563 84.8041976,26.8847676 L84.8041976,22.0719676 C84.8041976,21.108081 84.228353,20.6387822 83.3714267,20.6387822 L73.2864777,20.6371239 C73.2864777,20.6371239 75.2557085,18.0642721 77.4231061,15.2323109 L66.222536,15.2323109 Z M18.874766,15.2323109 C19.1106591,16.5548049 20.8788211,26.4067628 20.9820502,26.9834364 C21.1408324,27.8785036 21.6959482,28.3220988 22.5209522,28.3220988 L29.0923789,28.3220988 C29.6951709,28.3220988 29.9986397,28.1355401 30.2764049,27.7914429 C30.4691822,27.5559644 30.5533409,27.1927968 30.4617198,26.6646283 L28.4236696,15.2323109 L18.874766,15.2323109 Z M7.50670769,15.2323109 C3.99774575,20.8129036 0.463909312,26.4237603 0.383481781,26.557668 C0.118568421,26.9971174 0.119397571,27.4589538 0.274863158,27.7636664 C0.456861538,28.1181279 0.865632389,28.3175385 1.31544615,28.3175385 L8.13478866,28.3208551 C9.00042105,28.3208551 9.76240972,27.866481 10.1956405,27.1782866 L17.7185166,15.2323109 L7.50670769,15.2323109 Z" mask="url(#shout-anz-e)"/>
      </g>
      <g fill="#007DBA" transform="translate(20.496 .1)">
        <path d="M1.24737296 5.3109532C1.49984907 5.37769976 1.81907174 5.40423255 2.20504097 5.40423255 3.60132923 5.40423255 4.45203692 4.72598802 4.45203692 3.48889652 4.45203692 2.30569976 3.61418105 1.73400097 2.33770494 1.73400097 1.83233814 1.73400097 1.44636891 1.77380016 1.24737296 1.82686575L1.24737296 5.3109532zM.090294413.989424453C.649141377.896145101 1.38003692.816546721 2.31117215.816546721 3.45456972.816546721 4.29242559 1.08228923 4.82432518 1.56112324 5.31601101 1.98647709 5.60911547 2.63818883 5.60911547 3.43583093 5.60911547 4.24715401 5.36949117 4.88559935 4.91760453 5.35075239 4.30569198 6.00246413 3.30863935 6.3349532 2.1780936 6.3349532 1.83233814 6.3349532 1.51353004 6.3216868 1.24737296 6.25494024L1.24737296 9.84557344.090294413 9.84557344.090294413.989424453zM7.50973409 6.64070219C7.50973409 8.05025684 8.32105717 9.11405603 9.46445474 9.11405603 10.5817341 9.11405603 11.41959 8.06352324 11.41959 6.61416939 11.41959 5.52383741 10.8740094 4.14081555 9.49098753 4.14081555 8.10796567 4.14081555 7.50973409 5.41729166 7.50973409 6.64070219M12.6160531 6.5743702C12.6160531 8.9544447 10.9672887 9.99171109 9.41138915 9.99171109 7.66934543 9.99171109 6.32653733 8.7148204 6.32653733 6.68050138 6.32653733 4.5263702 7.73609198 3.26316049 9.5179349 3.26316049 11.3661098 3.26316049 12.6160531 4.60638316 12.6160531 6.5743702M14.4639793 3.4093396L15.3151015 6.68075012C15.5012457 7.39879385 15.6741234 8.06377198 15.793521 8.72833555L15.8337347 8.72833555C15.9796651 8.07662381 16.192342 7.38552745 16.4054335 6.69401652L17.4559663 3.4093396 18.4397526 3.4093396 19.4372198 6.62726996C19.6764295 7.39879385 19.8625736 8.07662381 20.0089185 8.72833555L20.0491323 8.72833555C20.1552635 8.07662381 20.3281412 7.39879385 20.5408181 6.64053636L21.4582724 3.4093396 22.6149364 3.4093396 20.5408181 9.8456149 19.4770189 9.8456149 18.4932327 6.7736149C18.2668748 6.05557117 18.0807307 5.4175404 17.9211194 4.65969749L17.894172 4.65969749C17.7349752 5.4308068 17.5355647 6.09537036 17.3092068 6.7868813L16.272355 9.8456149 15.2085558 9.8456149 13.266687 3.4093396 14.4639793 3.4093396zM27.7340243 6.00246413C27.7468761 5.25788761 27.428068 4.10080907 26.1117927 4.10080907 24.9277668 4.10080907 24.4091336 5.19114105 24.3162688 6.00246413L27.7340243 6.00246413zM24.3030024 6.84032C24.3295352 8.42233781 25.3402688 9.07446413 26.5106138 9.07446413 27.3480551 9.07446413 27.8534219 8.92811919 28.2924567 8.74156049L28.4918672 9.57941636C28.0793652 9.76597506 27.3750024 9.97865198 26.3510024 9.97865198 24.369749 9.97865198 23.1857231 8.6752285 23.1857231 6.73377425 23.1857231 4.79273457 24.3295352 3.2629532 26.2046575 3.2629532 28.3057231 3.2629532 28.8641555 5.11154267 28.8641555 6.29515401 28.8641555 6.53436372 28.8376227 6.72050785 28.8243563 6.84032L24.3030024 6.84032zM30.3129704 5.41741603C30.3129704 4.65957312 30.299704 4.00786138 30.2594902 3.40921522L31.2834902 3.40921522 31.323704 4.67283951 31.376355 4.67283951C31.6690449 3.80845085 32.3742368 3.26287028 33.1581979 3.26287028 33.291691 3.26287028 33.3845558 3.27613668 33.490687 3.30308405L33.490687 4.40668243C33.3712894 4.38014964 33.2514772 4.36688324 33.0918659 4.36688324 32.267691 4.36688324 31.6827258 4.99206219 31.5231145 5.86930267 31.4961671 6.02891401 31.4696343 6.21505814 31.4696343 6.41446866L31.4696343 9.84549053 30.3129704 9.84549053 30.3129704 5.41741603zM38.6101066 6.00246413C38.623373 5.25788761 38.3045649 4.10080907 36.987875 4.10080907 35.8038491 4.10080907 35.2856304 5.19114105 35.1927657 6.00246413L38.6101066 6.00246413zM35.1794993 6.84032C35.2060321 8.42233781 36.2167657 9.07446413 37.386696 9.07446413 38.2241373 9.07446413 38.7299187 8.92811919 39.1685389 8.74156049L39.3679495 9.57941636C38.955862 9.76597506 38.2510847 9.97865198 37.2270847 9.97865198 35.2458313 9.97865198 34.0622199 8.6752285 34.0622199 6.73377425 34.0622199 4.79273457 35.2060321 3.2629532 37.0807398 3.2629532 39.1818053 3.2629532 39.7406523 5.11154267 39.7406523 6.29515401 39.7406523 6.53436372 39.7137049 6.72050785 39.7004385 6.84032L35.1794993 6.84032zM45.5769134 6.02895547C45.5769134 5.88261053 45.5640615 5.68361457 45.5238478 5.53685506 45.35097 4.79269312 44.7129393 4.18078057 43.8352842 4.18078057 42.6251401 4.18078057 41.9070964 5.24457976 41.9070964 6.66740081 41.9070964 7.97040972 42.5455417 9.0474753 43.8083368 9.0474753 44.5931271 9.0474753 45.3111709 8.52884211 45.5238478 7.65118704 45.5640615 7.49157571 45.5769134 7.33237895 45.5769134 7.14582024L45.5769134 6.02895547zM46.7472583.404417814L46.7472583 8.18308664C46.7472583 8.75478543 46.7605247 9.40649717 46.8007385 9.84553198L45.7497911 9.84553198 45.6967255 8.72825263 45.6701927 8.72825263C45.3111709 9.44671093 44.5267951 9.99187692 43.4762623 9.99187692 41.9203628 9.99187692 40.723485 8.67518704 40.723485 6.7204664 40.7102186 4.57960162 42.0401749 3.26291174 43.6093409 3.26291174 44.5931271 3.26291174 45.2576907 3.72847935 45.5507951 4.24711255L45.5769134 4.24711255 45.5769134.404417814 46.7472583.404417814zM52.6635738 7.26563239C52.6635738 7.41197733 52.689692 7.55832227 52.7166394 7.69098623 52.9425827 8.50230931 53.6212418 9.06115628 54.4719495 9.06115628 55.69536 9.06115628 56.4266701 8.06368907 56.4266701 6.58738785 56.4266701 5.29764534 55.7621066 4.19404696 54.5117487 4.19404696 53.7141066 4.19404696 52.9691155 4.73921296 52.7299057 5.63013441 52.703373 5.76321296 52.6635738 5.92282429 52.6635738 6.10896842L52.6635738 7.26563239zM51.4534296 9.84553198C51.480377 9.40691174 51.5064952 8.75478543 51.5064952 8.18308664L51.5064952.404417814 52.6635738.404417814 52.6635738 4.44693765 52.689692 4.44693765C53.1026086 3.72847935 53.8467705 3.26291174 54.8840369 3.26291174 56.4797357 3.26291174 57.6102815 4.59286802 57.5966005 6.54758866 57.5966005 8.84806478 56.1472466 9.99187692 54.7111592 9.99187692 53.7804385 9.99187692 53.0354474 9.63285506 52.557028 8.78173279L52.5168143 8.78173279 52.4641632 9.84553198 51.4534296 9.84553198zM59.4044372 3.4093396L60.8139919 7.21264972C60.9603368 7.63800356 61.1199482 8.14337036 61.2264939 8.52892502L61.2530267 8.52892502C61.3728389 8.14337036 61.5055028 7.65126996 61.6651142 7.18570235L62.9415903 3.4093396 64.1786818 3.4093396 62.4229571 7.99702543C61.5855158 10.2046368 61.0134024 11.3347679 60.2157603 12.0262789 59.643647 12.5316457 59.0719482 12.7310562 58.7796729 12.7841218L58.486983 11.8003355C58.7796729 11.7070562 59.1652275 11.5209121 59.510983 11.2282222 59.8297911 10.9757461 60.2290267 10.5238594 60.4947692 9.92521328 60.5482494 9.80581571 60.587634 9.71253636 60.587634 9.6457898 60.587634 9.57945781 60.5615158 9.48659304 60.5080356 9.3402481L58.1279611 3.4093396 59.4044372 3.4093396z"/>
      </g>
      <g transform="translate(87.657 4.56)">
        <use fill="#000" filter="url(#shout-anz-f)" xlink:href="#shout-anz-g"/>
        <use fill="url(#shout-anz-h)" xlink:href="#shout-anz-g"/>
      </g>
    </g>
  </g>
</svg>
